<?xml version="1.0" encoding="iso-8859-1"?>
<!-- Generator: Adobe Illustrator 18.0.0, SVG Export Plug-In . SVG Version: 6.00 Build 0)  -->
<!DOCTYPE svg PUBLIC "-//W3C//DTD SVG 1.1//EN" "http://www.w3.org/Graphics/SVG/1.1/DTD/svg11.dtd">
<svg version="1.1" id="Capa_1" xmlns="http://www.w3.org/2000/svg" xmlns:xlink="http://www.w3.org/1999/xlink" x="0px" y="0px"
	 viewBox="0 0 448 448" style="enable-background:new 0 0 448 448;" xml:space="preserve">
<g>
	<rect x="101" y="310.5" style="fill:#7C6655;" width="246" height="15"/>
	<rect x="399" y="310.5" style="fill:#7C6655;" width="49" height="15"/>
	<rect y="310.5" style="fill:#7C6655;" width="49" height="15"/>
	<polygon style="fill:#88C9B3;" points="342.5,100 116.5,100 116.5,264 193.716,264 265.284,264 342.5,264 	"/>
	<rect x="159.5" y="138" style="fill:#7C6655;" width="140" height="15"/>
	<rect x="159.5" y="174" style="fill:#7C6655;" width="140" height="15"/>
	<rect x="159.5" y="210" style="fill:#7C6655;" width="140" height="15"/>
	<rect x="222.003" y="263.999" style="fill:#7C6655;" width="15" height="54"/>
	<g>
		<path style="fill:#E77200;" d="M75,348c-16.542,0-30-13.458-30-30s13.458-30,30-30s30,13.458,30,30S91.542,348,75,348z"/>
		<path style="fill:#E77200;" d="M373,348c-16.542,0-30-13.458-30-30s13.458-30,30-30s30,13.458,30,30S389.542,348,373,348z"/>
	</g>
	<rect x="222.003" y="263.999" style="fill:#665040;" width="15" height="20"/>
</g>
<g>
</g>
<g>
</g>
<g>
</g>
<g>
</g>
<g>
</g>
<g>
</g>
<g>
</g>
<g>
</g>
<g>
</g>
<g>
</g>
<g>
</g>
<g>
</g>
<g>
</g>
<g>
</g>
<g>
</g>
</svg>
